<svg xmlns="http://www.w3.org/2000/svg" width="1185" height="885" viewBox="0 0 1185 885">
<g>
<path d="M 957.00 590.44 C957.00,590.75 925.11,591.00 886.12,591.00 C830.61,591.00 815.03,590.73 814.26,589.75 C811.94,586.80 546.00,125.04 546.00,123.95 C546.00,123.29 561.82,95.34 581.16,61.82 C609.27,13.10 616.56,1.15 617.53,2.20 C618.20,2.91 646.64,51.88 680.72,111.00 C714.81,170.12 790.92,302.06 849.85,404.19 C908.78,506.32 957.00,590.13 957.00,590.44 ZM 452.00 538.00 L 421.50 590.96 L 348.69 590.98 L 275.88 591.00 L 279.19 585.18 C320.78,512.04 482.73,233.07 483.47,233.31 C484.04,233.48 489.03,241.48 494.57,251.07 C587.80,412.46 689.25,588.49 689.67,589.59 C690.14,590.80 679.79,591.00 617.71,591.00 L 545.20 591.00 L 514.79 538.32 C498.07,509.34 483.97,485.50 483.45,485.33 C482.93,485.17 468.77,508.87 452.00,538.00 Z" fill="rgb(31,64,155)"/>
<path d="M 951.11 781.98 C934.22,785.17 917.62,779.82 904.90,767.11 C894.18,756.39 889.99,745.95 890.02,730.07 C890.04,722.64 890.56,719.02 892.38,713.89 C905.15,677.71 950.94,667.10 977.92,694.08 C990.58,706.74 996.13,726.73 991.64,743.50 C986.53,762.55 969.78,778.47 951.11,781.98 ZM 595.79 778.11 C590.68,780.42 589.55,780.51 562.25,780.82 L 534.00 781.14 L 534.00 680.86 L 562.25 681.18 C587.54,681.47 590.87,681.70 594.00,683.37 C602.35,687.82 605.91,693.75 606.73,704.58 C607.23,711.16 607.00,712.47 604.54,717.50 C602.70,721.26 600.50,723.97 597.83,725.73 L 593.86 728.36 L 597.63 730.18 C608.90,735.67 613.67,748.66 609.52,762.61 C607.55,769.24 602.31,775.17 595.79,778.11 ZM 815.00 748.93 L 815.00 781.00 L 796.00 781.00 L 796.00 681.00 L 822.32 681.00 C842.95,681.00 849.74,681.33 853.75,682.52 C874.11,688.57 882.51,715.66 870.09,735.21 C867.46,739.34 863.31,743.07 857.47,746.54 C855.91,747.46 856.83,749.09 865.65,761.04 C871.12,768.44 876.61,775.96 877.86,777.75 L 880.14 781.00 L 857.14 781.00 L 845.75 765.25 L 834.35 749.50 L 824.68 749.21 ZM 117.00 741.00 L 117.00 781.00 L 98.00 781.00 L 98.00 681.00 L 117.00 681.00 L 117.00 724.00 L 166.00 724.00 L 166.00 681.00 L 185.00 681.00 L 185.00 781.00 L 166.00 781.00 L 166.00 741.00 ZM 281.00 764.03 L 281.00 781.00 L 207.00 781.00 L 207.00 681.00 L 281.08 681.00 L 280.50 697.50 L 253.22 697.77 L 225.94 698.03 L 226.22 710.27 L 226.50 722.50 L 275.08 723.04 L 274.50 739.50 L 250.22 739.77 L 225.94 740.04 L 226.22 751.77 L 226.50 763.50 L 253.75 763.77 ZM 1153.11 781.99 C1136.71,785.06 1120.19,781.32 1103.78,770.84 L 1099.06 767.83 L 1104.06 760.41 C1106.81,756.34 1109.54,753.00 1110.13,753.00 C1110.71,753.00 1112.46,753.91 1114.02,755.01 C1115.57,756.12 1120.31,758.67 1124.55,760.68 C1130.81,763.66 1133.73,764.43 1140.06,764.80 C1146.69,765.18 1148.55,764.91 1152.53,762.99 C1162.81,758.01 1163.83,747.33 1154.40,743.39 C1152.56,742.62 1144.75,740.68 1137.04,739.08 C1116.59,734.82 1107.74,730.06 1102.70,720.59 C1099.66,714.88 1099.66,702.30 1102.72,696.46 C1106.17,689.85 1112.87,684.44 1120.65,681.97 C1129.65,679.11 1146.66,678.84 1155.50,681.40 C1161.86,683.25 1175.00,690.43 1175.00,692.06 C1175.00,692.59 1172.73,696.15 1169.97,699.95 L 1164.93 706.87 L 1159.22 703.48 C1153.07,699.83 1143.79,697.00 1137.97,697.00 C1131.81,697.00 1124.38,699.76 1121.58,703.09 C1118.47,706.78 1118.34,708.90 1121.02,712.30 C1123.65,715.65 1130.31,718.07 1147.48,721.92 C1163.39,725.50 1169.87,728.58 1174.71,734.88 C1178.55,739.86 1179.99,744.56 1179.99,752.09 C1180.01,764.38 1174.94,772.95 1164.69,777.96 C1161.29,779.63 1156.08,781.44 1153.11,781.99 ZM 1067.28 780.02 C1059.11,783.12 1043.10,783.66 1033.50,781.17 C1026.46,779.34 1016.86,774.92 1009.86,770.29 L 1006.08 767.79 L 1011.07 760.39 C1013.82,756.33 1016.54,753.00 1017.13,753.00 C1017.71,753.00 1019.46,753.91 1021.02,755.01 C1022.57,756.12 1027.31,758.67 1031.55,760.68 C1037.81,763.66 1040.73,764.43 1047.06,764.80 C1053.69,765.18 1055.55,764.91 1059.53,762.99 C1069.81,758.01 1070.83,747.33 1061.40,743.39 C1059.56,742.62 1051.75,740.68 1044.04,739.08 C1023.59,734.82 1014.74,730.06 1009.70,720.59 C1006.66,714.88 1006.66,702.30 1009.72,696.46 C1013.17,689.85 1019.87,684.44 1027.65,681.97 C1036.65,679.11 1053.66,678.84 1062.50,681.40 C1068.86,683.25 1082.00,690.43 1082.00,692.06 C1082.00,692.59 1079.73,696.15 1076.97,699.95 L 1071.93 706.87 L 1066.22 703.48 C1060.07,699.83 1050.79,697.00 1044.97,697.00 C1038.81,697.00 1031.38,699.76 1028.58,703.09 C1025.47,706.78 1025.34,708.90 1028.02,712.30 C1030.65,715.65 1037.31,718.07 1054.48,721.92 C1070.40,725.50 1076.87,728.58 1081.72,734.89 C1085.87,740.28 1087.28,745.71 1086.84,754.52 C1086.20,767.16 1080.05,775.19 1067.28,780.02 ZM 365.40 765.00 L 357.60 781.00 L 336.85 781.00 L 352.55 750.25 C382.67,691.28 388.21,680.90 389.35,681.27 C390.21,681.55 437.62,772.50 440.69,779.75 C441.09,780.70 438.75,781.00 430.81,781.00 L 420.40 781.00 L 412.60 765.00 ZM 643.02 765.00 L 634.98 781.00 L 624.92 781.00 C617.36,781.00 614.93,780.69 615.18,779.75 C616.12,776.10 665.43,681.00 666.38,681.00 C667.34,681.00 718.00,778.50 718.00,780.34 C718.00,780.70 713.51,781.00 708.01,781.00 L 698.02 781.00 L 689.98 765.00 ZM 932.84 763.66 C938.24,765.66 948.51,764.93 954.27,762.12 C960.66,759.01 967.24,752.24 970.68,745.24 C973.10,740.31 973.50,738.30 973.50,731.00 C973.50,723.91 973.06,721.57 970.86,716.88 C967.45,709.60 962.42,704.10 955.80,700.44 C951.04,697.80 949.59,697.50 941.50,697.50 C933.40,697.50 931.97,697.79 927.15,700.46 C907.56,711.32 902.96,736.60 917.45,753.77 C920.41,757.28 926.92,761.46 932.84,763.66 ZM 754.00 698.05 L 754.00 781.00 L 735.00 781.00 L 735.00 698.00 L 707.15 698.00 L 706.50 681.00 L 744.79 681.00 L 783.08 681.00 L 782.79 689.25 L 782.50 697.50 ZM 56.00 698.00 L 56.00 781.00 L 37.00 781.00 L 37.00 698.05 L 8.50 697.50 L 8.21 689.25 L 7.92 681.00 L 84.00 681.00 L 84.00 698.00 ZM 522.00 764.00 L 522.00 781.00 L 450.00 781.00 L 450.00 681.00 L 469.00 681.00 L 469.00 764.00 ZM 815.00 697.87 L 815.00 732.00 L 830.35 732.00 C844.62,732.00 845.94,731.84 849.10,729.74 C853.02,727.14 857.00,719.97 856.99,715.54 C856.99,710.49 855.04,705.08 852.02,701.70 L 849.17 698.50 ZM 553.00 739.00 L 553.00 764.00 L 567.60 764.00 C584.14,764.00 586.34,763.31 589.91,756.95 C592.38,752.55 592.56,748.98 590.51,745.01 C587.62,739.44 586.03,739.00 568.78,739.00 ZM 553.67 721.33 C554.03,721.70 559.55,722.00 565.92,722.00 C574.94,722.00 578.27,721.61 581.00,720.25 C588.22,716.64 589.96,706.70 584.39,700.89 L 581.63 698.00 L 553.00 698.00 L 553.00 709.33 C553.00,715.57 553.30,720.97 553.67,721.33 ZM 652.71 748.25 C652.93,748.66 659.17,749.00 666.56,749.00 C676.67,749.00 679.99,748.69 679.96,747.75 C679.94,747.06 676.86,740.20 673.13,732.50 L 666.34 718.50 L 659.32 733.00 C655.46,740.97 652.48,747.84 652.71,748.25 ZM 375.67 748.25 C376.26,749.23 401.74,749.23 402.35,748.24 C402.86,747.41 389.90,718.98 389.03,719.03 C388.15,719.09 375.19,747.44 375.67,748.25 Z" fill="rgb(64,64,64)"/>
<path d="M 538.47 879.92 C530.43,882.94 519.22,882.78 512.31,879.56 C504.82,876.08 498.76,870.05 495.39,862.75 C492.95,857.47 492.51,855.26 492.55,848.50 C492.61,838.57 494.84,833.17 501.99,825.60 C509.13,818.05 515.11,815.54 526.00,815.53 C533.42,815.52 535.24,815.89 540.29,818.44 C547.32,821.99 553.32,828.28 556.69,835.63 C558.88,840.42 559.15,842.19 558.84,849.80 C558.57,856.50 557.93,859.65 556.04,863.50 C552.62,870.49 545.23,877.39 538.47,879.92 ZM 872.00 870.00 L 872.00 881.00 L 825.00 881.00 L 825.00 816.00 L 872.00 816.00 L 872.00 827.00 L 837.00 827.00 L 837.00 843.00 L 868.00 843.00 L 868.00 855.00 L 837.00 855.00 L 837.00 870.00 ZM 465.59 879.52 C453.89,884.72 435.73,882.35 426.24,874.40 L 423.98 872.50 L 426.98 868.00 C428.63,865.53 430.32,863.51 430.74,863.52 C431.16,863.53 434.38,865.03 437.89,866.86 C448.87,872.55 458.30,872.04 462.57,865.53 C466.16,860.06 462.17,857.00 447.66,854.08 C430.53,850.64 424.71,845.67 424.71,834.50 C424.71,822.14 433.20,815.67 449.50,815.61 C457.15,815.59 459.32,815.97 464.00,818.18 C467.02,819.60 470.36,821.43 471.40,822.23 C473.24,823.65 473.20,823.84 470.10,828.35 C468.34,830.91 466.75,833.00 466.56,833.00 C466.38,833.00 463.22,831.60 459.55,829.88 C454.04,827.30 452.02,826.84 447.87,827.24 C442.31,827.77 437.66,830.60 437.20,833.73 C436.68,837.18 441.35,839.70 453.55,842.53 C465.89,845.40 470.13,847.60 473.81,853.02 C475.85,856.02 476.12,857.46 475.83,863.50 C475.40,872.31 472.85,876.29 465.59,879.52 ZM 930.48 880.81 C917.24,884.17 906.16,882.37 894.25,874.93 C891.31,873.09 891.40,872.20 895.05,867.25 L 898.10 863.10 L 905.18 866.80 C911.16,869.92 913.24,870.50 918.56,870.50 C926.18,870.50 930.32,868.05 930.80,863.27 C931.25,858.85 927.79,856.63 917.30,854.56 C899.03,850.97 891.98,845.32 892.02,834.30 C892.04,826.95 895.22,822.14 902.43,818.54 C907.65,815.93 909.43,815.57 917.06,815.57 C925.10,815.57 926.32,815.85 933.42,819.36 L 941.10 823.16 L 939.30 825.89 C938.31,827.40 936.75,829.66 935.83,830.93 L 934.16 833.22 L 928.45 830.43 C917.45,825.05 905.87,826.67 905.19,833.69 C904.77,838.02 907.05,839.34 920.36,842.49 C926.30,843.89 932.94,845.95 935.12,847.06 C941.82,850.48 944.88,857.65 943.52,866.73 C942.62,872.69 936.52,879.28 930.48,880.81 ZM 397.00 879.16 C385.36,884.78 367.01,882.59 357.24,874.40 L 354.98 872.50 L 357.98 868.00 C359.63,865.53 361.32,863.51 361.74,863.52 C362.16,863.53 365.38,865.03 368.89,866.86 C379.87,872.55 389.30,872.04 393.57,865.53 C397.17,860.04 393.18,857.00 378.50,854.05 C373.26,853.00 367.08,851.09 364.77,849.82 C354.48,844.13 352.28,831.44 360.05,822.59 C368.46,813.02 389.85,812.86 402.40,822.27 C404.24,823.65 404.20,823.85 401.10,828.35 C399.34,830.91 397.74,833.00 397.54,833.00 C397.34,833.00 394.33,831.65 390.84,830.00 C382.91,826.25 376.76,826.01 371.90,829.28 C364.06,834.55 368.01,838.69 384.55,842.53 C401.86,846.56 407.01,851.12 406.98,862.40 C406.96,871.03 404.19,875.68 397.00,879.16 ZM 296.06 871.00 L 291.75 881.00 L 284.88 881.00 C281.09,881.00 278.00,880.86 278.00,880.68 C278.00,879.34 310.86,816.54 311.49,816.67 C311.94,816.77 319.69,831.28 328.72,848.92 L 345.14 881.00 L 331.34 881.00 L 326.66 871.00 ZM 708.03 871.00 L 702.97 881.00 L 696.48 881.00 C692.92,881.00 690.00,880.71 690.00,880.35 C690.00,879.26 722.46,816.02 723.03,816.01 C723.60,816.00 756.00,879.23 756.00,880.35 C756.00,880.71 753.08,881.00 749.52,881.00 L 743.03 881.00 L 737.97 871.00 ZM 623.50 879.15 C618.39,881.57 616.31,881.99 609.50,881.93 C605.10,881.89 599.87,881.26 597.87,880.52 C575.48,872.28 568.54,843.41 584.80,826.13 C595.52,814.73 612.37,812.01 625.56,819.54 C629.62,821.86 638.00,830.16 638.00,831.86 C638.00,832.36 635.54,833.77 632.52,834.99 L 627.05 837.21 L 624.50 834.18 C623.10,832.52 620.02,830.22 617.66,829.08 C601.48,821.25 583.56,838.12 589.40,855.70 C592.17,864.04 601.24,871.03 609.22,870.98 C613.69,870.95 620.57,867.67 624.11,863.88 L 627.04 860.75 L 632.22 862.71 C635.06,863.80 637.56,865.18 637.76,865.79 C638.47,867.92 629.56,876.27 623.50,879.15 ZM 518.02 868.92 C526.39,872.72 534.41,870.74 541.20,863.21 C552.77,850.38 544.93,828.85 528.09,827.23 C511.33,825.62 499.62,843.46 507.39,858.78 C510.28,864.47 512.15,866.26 518.02,868.92 ZM 789.00 827.00 L 789.00 881.00 L 776.00 881.00 L 776.00 827.00 L 758.00 827.00 L 758.00 816.00 L 807.00 816.00 L 807.00 827.00 ZM 671.00 816.00 L 671.00 881.00 L 659.00 881.00 L 659.00 816.00 ZM 718.27 851.00 L 714.16 860.00 L 731.95 860.00 L 728.38 852.25 C726.42,847.99 724.58,843.94 724.30,843.25 C723.31,840.84 722.35,842.08 718.27,851.00 ZM 303.00 859.27 C303.00,859.67 306.83,860.00 311.50,860.00 C316.17,860.00 320.00,859.83 320.00,859.63 C320.00,859.43 318.07,855.10 315.72,850.02 L 311.44 840.78 L 307.22 849.66 C304.90,854.54 303.00,858.86 303.00,859.27 Z" fill="rgb(140,141,143)"/>
<path d="M 0.00 442.50 L 0.00 0.00 L 592.50 0.00 L 1185.00 0.00 L 1185.00 442.50 L 1185.00 885.00 L 592.50 885.00 L 0.00 885.00 L 0.00 442.50 ZM 397.00 879.16 C404.19,875.68 406.96,871.03 406.98,862.40 C407.01,851.12 401.86,846.56 384.55,842.53 C368.01,838.69 364.06,834.55 371.90,829.28 C376.76,826.01 382.91,826.25 390.84,830.00 C394.33,831.65 397.34,833.00 397.54,833.00 C397.74,833.00 399.34,830.91 401.10,828.35 C404.20,823.85 404.24,823.65 402.40,822.27 C389.85,812.86 368.46,813.02 360.05,822.59 C352.28,831.44 354.48,844.13 364.77,849.82 C367.08,851.09 373.26,853.00 378.50,854.05 C393.18,857.00 397.17,860.04 393.57,865.53 C389.30,872.04 379.87,872.55 368.89,866.86 C365.38,865.03 362.16,863.53 361.74,863.52 C361.32,863.51 359.63,865.53 357.98,868.00 L 354.98 872.50 L 357.24 874.40 C367.01,882.59 385.36,884.78 397.00,879.16 ZM 465.59 879.52 C472.85,876.29 475.40,872.31 475.83,863.50 C476.12,857.46 475.85,856.02 473.81,853.02 C470.13,847.60 465.89,845.40 453.55,842.53 C441.35,839.70 436.68,837.18 437.20,833.73 C437.66,830.60 442.31,827.77 447.87,827.24 C452.02,826.84 454.04,827.30 459.55,829.88 C463.22,831.60 466.38,833.00 466.56,833.00 C466.75,833.00 468.34,830.91 470.10,828.35 C473.20,823.84 473.24,823.65 471.40,822.23 C470.36,821.43 467.02,819.60 464.00,818.18 C459.32,815.97 457.15,815.59 449.50,815.61 C433.20,815.67 424.71,822.14 424.71,834.50 C424.71,845.67 430.53,850.64 447.66,854.08 C462.17,857.00 466.16,860.06 462.57,865.53 C458.30,872.04 448.87,872.55 437.89,866.86 C434.38,865.03 431.16,863.53 430.74,863.52 C430.32,863.51 428.63,865.53 426.98,868.00 L 423.98 872.50 L 426.24 874.40 C435.73,882.35 453.89,884.72 465.59,879.52 ZM 930.48 880.81 C936.52,879.28 942.62,872.69 943.52,866.73 C944.88,857.65 941.82,850.48 935.12,847.06 C932.94,845.95 926.30,843.89 920.36,842.49 C907.05,839.34 904.77,838.02 905.19,833.69 C905.87,826.67 917.45,825.05 928.45,830.43 L 934.16 833.22 L 935.83 830.93 C936.75,829.66 938.31,827.40 939.30,825.89 L 941.10 823.16 L 933.42 819.36 C926.32,815.85 925.10,815.57 917.06,815.57 C909.43,815.57 907.65,815.93 902.43,818.54 C895.22,822.14 892.04,826.95 892.02,834.30 C891.98,845.32 899.03,850.97 917.30,854.56 C927.79,856.63 931.25,858.85 930.80,863.27 C930.32,868.05 926.18,870.50 918.56,870.50 C913.24,870.50 911.16,869.92 905.18,866.80 L 898.10 863.10 L 895.05 867.25 C891.40,872.20 891.31,873.09 894.25,874.93 C906.16,882.37 917.24,884.17 930.48,880.81 ZM 538.47 879.92 C545.23,877.39 552.62,870.49 556.04,863.50 C557.93,859.65 558.57,856.50 558.84,849.80 C559.15,842.19 558.88,840.42 556.69,835.63 C553.32,828.28 547.32,821.99 540.29,818.44 C535.24,815.89 533.42,815.52 526.00,815.53 C515.11,815.54 509.13,818.05 501.99,825.60 C494.84,833.17 492.61,838.57 492.55,848.50 C492.51,855.26 492.95,857.47 495.39,862.75 C498.76,870.05 504.82,876.08 512.31,879.56 C519.22,882.78 530.43,882.94 538.47,879.92 ZM 623.50 879.15 C629.56,876.27 638.47,867.92 637.76,865.79 C637.56,865.18 635.06,863.80 632.22,862.71 L 627.04 860.75 L 624.11 863.88 C620.57,867.67 613.69,870.95 609.22,870.98 C601.24,871.03 592.17,864.04 589.40,855.70 C583.56,838.12 601.48,821.25 617.66,829.08 C620.02,830.22 623.10,832.52 624.50,834.18 L 627.05 837.21 L 632.52 834.99 C635.54,833.77 638.00,832.36 638.00,831.86 C638.00,830.16 629.62,821.86 625.56,819.54 C612.37,812.01 595.52,814.73 584.80,826.13 C568.54,843.41 575.48,872.28 597.87,880.52 C599.87,881.26 605.10,881.89 609.50,881.93 C616.31,881.99 618.39,881.57 623.50,879.15 ZM 293.90 876.00 L 296.06 871.00 L 311.36 871.00 L 326.66 871.00 L 329.00 876.00 L 331.34 881.00 L 338.24 881.00 L 345.14 881.00 L 328.72 848.92 C319.69,831.28 311.94,816.77 311.49,816.67 C310.86,816.54 278.00,879.34 278.00,880.68 C278.00,880.86 281.09,881.00 284.88,881.00 L 291.75 881.00 L 293.90 876.00 ZM 671.00 848.50 L 671.00 816.00 L 665.00 816.00 L 659.00 816.00 L 659.00 848.50 L 659.00 881.00 L 665.00 881.00 L 671.00 881.00 L 671.00 848.50 ZM 705.50 876.00 L 708.03 871.00 L 723.00 871.00 L 737.97 871.00 L 740.50 876.00 L 743.03 881.00 L 749.52 881.00 C753.08,881.00 756.00,880.71 756.00,880.35 C756.00,879.23 723.60,816.00 723.03,816.01 C722.46,816.02 690.00,879.26 690.00,880.35 C690.00,880.71 692.92,881.00 696.48,881.00 L 702.97 881.00 L 705.50 876.00 ZM 789.00 854.00 L 789.00 827.00 L 798.00 827.00 L 807.00 827.00 L 807.00 821.50 L 807.00 816.00 L 782.50 816.00 L 758.00 816.00 L 758.00 821.50 L 758.00 827.00 L 767.00 827.00 L 776.00 827.00 L 776.00 854.00 L 776.00 881.00 L 782.50 881.00 L 789.00 881.00 L 789.00 854.00 ZM 872.00 875.50 L 872.00 870.00 L 854.50 870.00 L 837.00 870.00 L 837.00 862.50 L 837.00 855.00 L 852.50 855.00 L 868.00 855.00 L 868.00 849.00 L 868.00 843.00 L 852.50 843.00 L 837.00 843.00 L 837.00 835.00 L 837.00 827.00 L 854.50 827.00 L 872.00 827.00 L 872.00 821.50 L 872.00 816.00 L 848.50 816.00 L 825.00 816.00 L 825.00 848.50 L 825.00 881.00 L 848.50 881.00 L 872.00 881.00 L 872.00 875.50 ZM 951.11 781.98 C969.78,778.47 986.53,762.55 991.64,743.50 C996.13,726.73 990.58,706.74 977.92,694.08 C950.94,667.10 905.15,677.71 892.38,713.89 C890.56,719.02 890.04,722.64 890.02,730.07 C889.99,745.95 894.18,756.39 904.90,767.11 C917.62,779.82 934.22,785.17 951.11,781.98 ZM 1067.28 780.02 C1080.05,775.19 1086.20,767.16 1086.84,754.52 C1087.28,745.71 1085.87,740.28 1081.72,734.89 C1076.87,728.58 1070.40,725.50 1054.48,721.92 C1037.31,718.07 1030.65,715.65 1028.02,712.30 C1025.34,708.90 1025.47,706.78 1028.58,703.09 C1031.38,699.76 1038.81,697.00 1044.97,697.00 C1050.79,697.00 1060.07,699.83 1066.22,703.48 L 1071.93 706.87 L 1076.97 699.95 C1079.73,696.15 1082.00,692.59 1082.00,692.06 C1082.00,690.43 1068.86,683.25 1062.50,681.40 C1053.66,678.84 1036.65,679.11 1027.65,681.97 C1019.87,684.44 1013.17,689.85 1009.72,696.46 C1006.66,702.30 1006.66,714.88 1009.70,720.59 C1014.74,730.06 1023.59,734.82 1044.04,739.08 C1051.75,740.68 1059.56,742.62 1061.40,743.39 C1070.83,747.33 1069.81,758.01 1059.53,762.99 C1055.55,764.91 1053.69,765.18 1047.06,764.80 C1040.73,764.43 1037.81,763.66 1031.55,760.68 C1027.31,758.67 1022.57,756.12 1021.02,755.01 C1019.46,753.91 1017.71,753.00 1017.13,753.00 C1016.54,753.00 1013.82,756.33 1011.07,760.39 L 1006.08 767.79 L 1009.86 770.29 C1016.86,774.92 1026.46,779.34 1033.50,781.17 C1043.10,783.66 1059.11,783.12 1067.28,780.02 ZM 1153.11 781.99 C1156.08,781.44 1161.29,779.63 1164.69,777.96 C1174.94,772.95 1180.01,764.38 1179.99,752.09 C1179.99,744.56 1178.55,739.86 1174.71,734.88 C1169.87,728.58 1163.39,725.50 1147.48,721.92 C1130.31,718.07 1123.65,715.65 1121.02,712.30 C1118.34,708.90 1118.47,706.78 1121.58,703.09 C1124.38,699.76 1131.81,697.00 1137.97,697.00 C1143.79,697.00 1153.07,699.83 1159.22,703.48 L 1164.93 706.87 L 1169.97 699.95 C1172.73,696.15 1175.00,692.59 1175.00,692.06 C1175.00,690.43 1161.86,683.25 1155.50,681.40 C1146.66,678.84 1129.65,679.11 1120.65,681.97 C1112.87,684.44 1106.17,689.85 1102.72,696.46 C1099.66,702.30 1099.66,714.88 1102.70,720.59 C1107.74,730.06 1116.59,734.82 1137.04,739.08 C1144.75,740.68 1152.56,742.62 1154.40,743.39 C1163.83,747.33 1162.81,758.01 1152.53,762.99 C1148.55,764.91 1146.69,765.18 1140.06,764.80 C1133.73,764.43 1130.81,763.66 1124.55,760.68 C1120.31,758.67 1115.57,756.12 1114.02,755.01 C1112.46,753.91 1110.71,753.00 1110.13,753.00 C1109.54,753.00 1106.81,756.34 1104.06,760.41 L 1099.06 767.83 L 1103.78 770.84 C1120.19,781.32 1136.71,785.06 1153.11,781.99 ZM 56.00 739.50 L 56.00 698.00 L 70.00 698.00 L 84.00 698.00 L 84.00 689.50 L 84.00 681.00 L 45.96 681.00 L 7.92 681.00 L 8.21 689.25 L 8.50 697.50 L 22.75 697.78 L 37.00 698.05 L 37.00 739.53 L 37.00 781.00 L 46.50 781.00 L 56.00 781.00 L 56.00 739.50 ZM 117.00 761.00 L 117.00 741.00 L 141.50 741.00 L 166.00 741.00 L 166.00 761.00 L 166.00 781.00 L 175.50 781.00 L 185.00 781.00 L 185.00 731.00 L 185.00 681.00 L 175.50 681.00 L 166.00 681.00 L 166.00 702.50 L 166.00 724.00 L 141.50 724.00 L 117.00 724.00 L 117.00 702.50 L 117.00 681.00 L 107.50 681.00 L 98.00 681.00 L 98.00 731.00 L 98.00 781.00 L 107.50 781.00 L 117.00 781.00 L 117.00 761.00 ZM 281.00 772.52 L 281.00 764.03 L 253.75 763.77 L 226.50 763.50 L 226.22 751.77 L 225.94 740.04 L 250.22 739.77 L 274.50 739.50 L 274.79 731.27 L 275.08 723.04 L 250.79 722.77 L 226.50 722.50 L 226.22 710.27 L 225.94 698.03 L 253.22 697.77 L 280.50 697.50 L 280.79 689.25 L 281.08 681.00 L 244.04 681.00 L 207.00 681.00 L 207.00 731.00 L 207.00 781.00 L 244.00 781.00 L 281.00 781.00 L 281.00 772.52 ZM 361.50 773.00 L 365.40 765.00 L 389.00 765.00 L 412.60 765.00 L 416.50 773.00 L 420.40 781.00 L 430.81 781.00 C438.75,781.00 441.09,780.70 440.69,779.75 C437.62,772.50 390.21,681.55 389.35,681.27 C388.21,680.90 382.67,691.28 352.55,750.25 L 336.85 781.00 L 347.23 781.00 L 357.60 781.00 L 361.50 773.00 ZM 522.00 772.50 L 522.00 764.00 L 495.50 764.00 L 469.00 764.00 L 469.00 722.50 L 469.00 681.00 L 459.50 681.00 L 450.00 681.00 L 450.00 731.00 L 450.00 781.00 L 486.00 781.00 L 522.00 781.00 L 522.00 772.50 ZM 595.79 778.11 C602.31,775.17 607.55,769.24 609.52,762.61 C613.67,748.66 608.90,735.67 597.63,730.18 L 593.86 728.36 L 597.83 725.73 C600.50,723.97 602.70,721.26 604.54,717.50 C607.00,712.47 607.23,711.16 606.73,704.58 C605.91,693.75 602.35,687.82 594.00,683.37 C590.87,681.70 587.54,681.47 562.25,681.18 L 534.00 680.86 L 534.00 731.00 L 534.00 781.14 L 562.25 780.82 C589.55,780.51 590.68,780.42 595.79,778.11 ZM 639.00 773.00 L 643.02 765.00 L 666.50 765.00 L 689.98 765.00 L 694.00 773.00 L 698.02 781.00 L 708.01 781.00 C713.51,781.00 718.00,780.70 718.00,780.34 C718.00,778.50 667.34,681.00 666.38,681.00 C665.43,681.00 616.12,776.10 615.18,779.75 C614.93,780.69 617.36,781.00 624.92,781.00 L 634.98 781.00 L 639.00 773.00 ZM 754.00 739.53 L 754.00 698.05 L 768.25 697.78 L 782.50 697.50 L 782.79 689.25 L 783.08 681.00 L 744.79 681.00 L 706.50 681.00 L 706.82 689.50 L 707.15 698.00 L 721.07 698.00 L 735.00 698.00 L 735.00 739.50 L 735.00 781.00 L 744.50 781.00 L 754.00 781.00 L 754.00 739.53 ZM 815.00 764.96 L 815.00 748.93 L 824.68 749.21 L 834.35 749.50 L 845.75 765.25 L 857.14 781.00 L 868.64 781.00 L 880.14 781.00 L 877.86 777.75 C876.61,775.96 871.12,768.44 865.65,761.04 C856.83,749.09 855.91,747.46 857.47,746.54 C863.31,743.07 867.46,739.34 870.09,735.21 C882.51,715.66 874.11,688.57 853.75,682.52 C849.74,681.33 842.95,681.00 822.32,681.00 L 796.00 681.00 L 796.00 731.00 L 796.00 781.00 L 805.50 781.00 L 815.00 781.00 L 815.00 764.96 ZM 452.00 538.00 C468.77,508.87 482.93,485.17 483.45,485.33 C483.97,485.50 498.07,509.34 514.79,538.32 L 545.20 591.00 L 617.71 591.00 C679.79,591.00 690.14,590.80 689.67,589.59 C689.25,588.49 587.80,412.46 494.57,251.07 C489.03,241.48 484.04,233.48 483.47,233.31 C482.73,233.07 320.78,512.04 279.19,585.18 L 275.88 591.00 L 348.69 590.98 L 421.50 590.96 L 452.00 538.00 ZM 957.00 590.44 C957.00,590.13 908.78,506.32 849.85,404.19 C790.92,302.06 714.81,170.12 680.72,111.00 C646.64,51.88 618.20,2.91 617.53,2.20 C616.56,1.15 609.27,13.10 581.16,61.82 C561.82,95.34 546.00,123.29 546.00,123.95 C546.00,125.04 811.94,586.80 814.26,589.75 C815.03,590.73 830.61,591.00 886.12,591.00 C925.11,591.00 957.00,590.75 957.00,590.44 ZM 518.02 868.92 C512.15,866.26 510.28,864.47 507.39,858.78 C499.62,843.46 511.33,825.62 528.09,827.23 C544.93,828.85 552.77,850.38 541.20,863.21 C534.41,870.74 526.39,872.72 518.02,868.92 ZM 303.00 859.27 C303.00,858.86 304.90,854.54 307.22,849.66 L 311.44 840.78 L 315.72 850.02 C318.07,855.10 320.00,859.43 320.00,859.63 C320.00,859.83 316.17,860.00 311.50,860.00 C306.83,860.00 303.00,859.67 303.00,859.27 ZM 718.27 851.00 C722.35,842.08 723.31,840.84 724.30,843.25 C724.58,843.94 726.42,847.99 728.38,852.25 L 731.95 860.00 L 723.05 860.00 L 714.16 860.00 L 718.27 851.00 ZM 932.84 763.66 C926.92,761.46 920.41,757.28 917.45,753.77 C902.96,736.60 907.56,711.32 927.15,700.46 C931.97,697.79 933.40,697.50 941.50,697.50 C949.59,697.50 951.04,697.80 955.80,700.44 C962.42,704.10 967.45,709.60 970.86,716.88 C973.06,721.57 973.50,723.91 973.50,731.00 C973.50,738.30 973.10,740.31 970.68,745.24 C967.24,752.24 960.66,759.01 954.27,762.12 C948.51,764.93 938.24,765.66 932.84,763.66 ZM 375.67 748.25 C375.19,747.44 388.15,719.09 389.03,719.03 C389.90,718.98 402.86,747.41 402.35,748.24 C401.74,749.23 376.26,749.23 375.67,748.25 ZM 553.00 751.50 L 553.00 739.00 L 568.78 739.00 C586.03,739.00 587.62,739.44 590.51,745.01 C592.56,748.98 592.38,752.55 589.91,756.95 C586.34,763.31 584.14,764.00 567.60,764.00 L 553.00 764.00 L 553.00 751.50 ZM 553.67 721.33 C553.30,720.97 553.00,715.57 553.00,709.33 L 553.00 698.00 L 567.31 698.00 L 581.63 698.00 L 584.39 700.89 C589.96,706.70 588.22,716.64 581.00,720.25 C578.27,721.61 574.94,722.00 565.92,722.00 C559.55,722.00 554.03,721.70 553.67,721.33 ZM 652.71 748.25 C652.48,747.84 655.46,740.97 659.32,733.00 L 666.34 718.50 L 673.13 732.50 C676.86,740.20 679.94,747.06 679.96,747.75 C679.99,748.69 676.67,749.00 666.56,749.00 C659.17,749.00 652.93,748.66 652.71,748.25 ZM 815.00 714.93 L 815.00 697.87 L 832.08 698.18 L 849.17 698.50 L 852.02 701.70 C855.04,705.08 856.99,710.49 856.99,715.54 C857.00,719.97 853.02,727.14 849.10,729.74 C845.94,731.84 844.62,732.00 830.35,732.00 L 815.00 732.00 L 815.00 714.93 Z" fill="rgb(254,254,254)"/>
</g>
</svg>